<svg width="67" height="66" viewBox="0 0 67 66" fill="none" xmlns="http://www.w3.org/2000/svg">
<path d="M1.02677 32.6592L1.04016 32.5782V32.4961V6C1.04016 3.2731 3.31326 1 6.04016 1H60.0402C62.7671 1 65.0402 3.2731 65.0402 6V32.5254V32.6075L65.0536 32.6885C65.0892 32.9045 65.0892 33.1248 65.0536 33.3408L65.0402 33.4218V33.5039V47.5254V47.6075L65.0536 47.6885C65.0892 47.9045 65.0892 48.1248 65.0536 48.3408L65.0402 48.4218V48.5039V60C65.0402 62.7269 62.7671 65 60.0402 65H6.04016C3.31326 65 1.04016 62.7269 1.04016 60V48.4746V48.3925L1.02677 48.3115C0.991075 48.0955 0.991075 47.8752 1.02677 47.6592L1.04016 47.5782V47.4961V33.4746V33.3925L1.02677 33.3115C0.991075 33.0955 0.991075 32.8752 1.02677 32.6592ZM6.04016 20H5.04016V21V30V31H6.04016H60.0402H61.0402V30V21V20H60.0402H6.04016ZM6.04016 35H5.04016V36V45V46H6.04016H60.0402H61.0402V45V36V35H60.0402H6.04016ZM6.04016 50H5.04016V51V60V61H6.04016H60.0402H61.0402V60V51V50H60.0402H6.04016Z" stroke="#352F44" stroke-width="2"/>
</svg>
