<svg width="72" height="72" viewBox="0 0 72 72" fill="none" xmlns="http://www.w3.org/2000/svg">
<path d="M44 47.997V48.1593L44.0513 48.3132C44.9525 51.0169 47.4027 52.4732 50.1243 53.5237C51.5044 54.0564 53.0312 54.5125 54.579 54.968C54.6815 54.9982 54.7841 55.0284 54.8869 55.0586C56.3484 55.4883 57.8314 55.9244 59.2922 56.44C62.4239 57.5453 65.3316 58.9768 67.4626 61.3252C69.425 63.4879 70.803 66.5119 70.9806 70.997H1.01945C1.19698 66.5119 2.575 63.4879 4.53744 61.3252C6.66841 58.9768 9.57608 57.5453 12.7078 56.44C14.1686 55.9244 15.6516 55.4883 17.1131 55.0586C17.2159 55.0284 17.3185 54.9982 17.421 54.968C18.9688 54.5125 20.4956 54.0564 21.8757 53.5237C24.5973 52.4732 27.0475 51.0169 27.9487 48.3132L28 48.1593V47.997V41.997V41.3765L27.444 41.101C27.2725 41.016 26.8789 40.7136 26.3311 40.1433C25.8106 39.6014 25.2206 38.8914 24.6551 38.0888C23.502 36.452 22.5518 34.5727 22.3777 33.0289L22.285 32.2068L21.4601 32.1439C21.203 32.1243 20.769 31.9922 20.3281 31.4621C19.8757 30.9181 19.3845 29.9127 19.1539 28.1092L19.1539 28.1091C18.9448 26.4744 19.7706 25.6884 20.0828 25.5087L20.8843 25.0475L20.4874 24.2132L20.4873 24.213L20.4872 24.2128L20.4872 24.2127L20.487 24.2124L20.4851 24.2083L20.4746 24.1856C20.4648 24.1643 20.4496 24.131 20.4299 24.0866C20.3903 23.9976 20.3325 23.8639 20.2624 23.6921C20.122 23.3481 19.9336 22.8537 19.7451 22.2602C19.3643 21.0618 19 19.5116 19 18C19 13.2483 20.2739 9.01201 22.9749 5.97578C25.6579 2.95979 29.8625 1 36 1C39.1944 1 41.2246 2.03993 42.4465 3.02767C43.0642 3.52708 43.4869 4.02287 43.7511 4.38561C43.8831 4.56679 43.9748 4.71391 44.031 4.8103C44.0591 4.85845 44.0782 4.89379 44.0889 4.9142L44.0981 4.93192L44.0986 4.93305L44.0987 4.93331L44.0991 4.93393L44.0993 4.93442L44.3673 5.5H45C47.6646 5.5 49.6141 6.81978 50.9459 9.03394C52.3034 11.2908 53 14.4674 53 18C53 19.6777 52.6329 21.2289 52.2579 22.3715C52.0713 22.9398 51.8853 23.3995 51.7476 23.7137C51.6788 23.8706 51.6223 23.9908 51.5842 24.0695C51.5751 24.0881 51.5671 24.1045 51.5603 24.1184C51.5526 24.1338 51.5463 24.1463 51.5415 24.1558L51.532 24.1745L51.5311 24.1762L51.5309 24.1766L51.5307 24.1769L51.5305 24.1774L51.5304 24.1775L51.0825 25.0284L51.9172 25.5087C52.2297 25.6885 53.0552 26.4718 52.8461 28.1093C52.6155 29.9128 52.1243 30.9181 51.6719 31.4621C51.231 31.9922 50.797 32.1243 50.5399 32.1439L49.715 32.2068L49.6223 33.0289C49.4482 34.5727 48.498 36.452 47.3449 38.0888C46.7794 38.8914 46.1894 39.6014 45.6689 40.1433C45.1211 40.7136 44.7275 41.016 44.556 41.101L44 41.3765V41.997V47.997Z" stroke="#352F44" stroke-width="2"/>
</svg>
