<svg width="90" height="90" viewBox="0 0 90 90" fill="none" xmlns="http://www.w3.org/2000/svg">
<path d="M37.3037 29.3594L37.3037 29.3594C37.711 30.26 38.3505 31.8222 38.9079 33.1943C39.0055 33.4345 39.1006 33.669 39.1918 33.8939C39.3633 34.3166 39.5209 34.7053 39.655 35.0334C39.7577 35.2844 39.8451 35.4965 39.9132 35.6587C39.9474 35.7398 39.9757 35.8061 39.998 35.8572C40.0092 35.8827 40.0182 35.9029 40.0253 35.9184L40.0335 35.9362C40.0352 35.9398 40.0361 35.9416 40.0363 35.9419C40.3098 36.4928 40.6258 37.3927 40.1031 38.3973C40.0725 38.4597 40.0429 38.521 40.0136 38.5815C39.7769 39.0709 39.5657 39.5077 39.1077 40.0705L39.098 40.0825L39.0879 40.0942C38.9757 40.2237 38.845 40.3815 38.7049 40.5505C38.3784 40.9445 38.0012 41.3998 37.6901 41.7007C37.5807 41.8101 37.5068 41.8871 37.449 41.9595C37.3925 42.0301 37.3756 42.0675 37.3712 42.0796C37.3705 42.0815 37.3699 42.0815 37.3699 42.0836C37.3699 42.085 37.3702 42.0872 37.3707 42.0916C37.373 42.1097 37.3858 42.18 37.463 42.3133C37.9609 43.173 39.6895 45.9853 42.2196 48.2374L42.2209 48.2386C44.9312 50.6599 47.2372 51.6614 48.5148 52.2163C48.781 52.3319 49.0025 52.4281 49.1738 52.5138C49.5582 52.706 49.6974 52.6985 49.7135 52.6966L49.7153 52.6963L37.3037 29.3594ZM37.3037 29.3594C36.9213 28.514 36.4652 27.9305 35.8834 27.5893C35.3104 27.2534 34.7482 27.2387 34.4201 27.2311C33.9306 27.2062 33.3777 27.2066 32.8618 27.2069C32.7998 27.207 32.7384 27.207 32.6777 27.207C31.8507 27.207 30.6012 27.5077 29.5568 28.6435L29.5568 28.6434L29.5507 28.6502C29.4959 28.711 29.433 28.7787 29.3633 28.8536C28.4079 29.8816 26.1816 32.2773 26.1816 36.7617C26.1816 39.1763 27.0537 41.4963 27.9384 43.2423C28.8232 44.9886 29.7646 46.2454 30.0142 46.5724L37.3037 29.3594ZM15.0972 63.7155L15.2101 63.3036L14.9906 62.9372C11.8429 57.6833 10 51.5632 10 45C10 25.6713 25.6713 10 45 10C64.3287 10 80 25.6713 80 45C80 64.3287 64.3287 80 45 80C38.72 80 32.8381 78.3239 27.7403 75.4256L27.3862 75.2243L26.9922 75.3277L10.7449 79.5927L15.0972 63.7155Z" stroke="#352F44" stroke-width="2"/>
</svg>
